{"glyphs":{"0":{"ha":815,"x_min":0,"x_max":0,"o":"m 770 557 b 706 767 762 629 746 708 b 604 833 682 802 646 825 b 39 250 -23 956 24 491 b 96 66 44 185 57 118 b 404 -49 165 -24 291 -44 b 659 9 493 -53 591 -49 b 756 260 728 70 744 169 b 770 557 768 359 781 459 z m 530 407 b 417 289 493 367 455 328 l 314 419 b 276 468 300 434 285 449 b 267 528 266 486 261 509 b 364 569 279 566 328 582 b 438 482 401 555 426 520 b 496 583 423 524 453 575 b 586 510 539 591 585 554 b 530 407 587 469 558 436 z "},"1":{"ha":681,"x_min":0,"x_max":0,"o":"m 93 788 b 188 753 127 804 168 784 b 216 647 208 722 212 684 b 256 237 229 510 242 374 b 254 133 259 203 262 167 b 192 55 246 99 225 67 b 124 46 170 47 147 49 b 71 10 102 43 78 32 b 101 -48 64 -13 80 -37 b 171 -59 123 -59 147 -59 b 540 -59 294 -59 417 -59 b 611 -20 570 -59 609 -50 b 564 39 612 6 581 20 b 538 147 537 67 537 109 b 549 644 541 313 545 478 b 540 786 550 691 551 739 b 465 903 529 832 505 877 b 269 924 409 940 336 933 b 145 893 226 919 183 913 b 72 796 107 874 75 838 z "},"2":{"ha":796,"x_min":0,"x_max":0,"o":"m 120 578 b 336 618 193 556 276 571 b 375 642 348 628 360 639 b 418 560 413 648 437 593 b 319 507 398 527 357 514 b 211 471 281 500 240 496 b 177 291 162 430 167 354 b 204 112 186 231 195 172 b 231 22 209 81 214 49 b 359 -48 258 -20 310 -40 b 613 0 446 -62 539 -48 b 744 218 688 47 740 130 b 642 374 746 286 708 363 b 538 324 601 381 557 360 b 492 244 522 296 519 260 b 426 254 471 231 443 237 b 408 321 409 271 403 297 b 545 429 420 381 485 413 b 708 506 604 445 671 457 b 728 656 740 547 742 605 b 581 847 706 735 650 803 b 345 908 511 890 427 909 b 115 819 260 908 171 883 b 113 589 59 755 51 647 z "},"3":{"ha":785,"x_min":0,"x_max":0,"o":"m 50 653 b 139 565 56 609 96 576 b 271 564 181 553 227 558 b 364 624 311 569 361 583 b 356 670 366 639 359 654 b 374 710 354 686 359 705 b 396 707 381 712 389 710 b 443 539 459 683 485 593 b 374 479 425 515 397 500 b 364 455 367 473 361 466 b 377 441 366 449 371 444 b 416 434 389 434 403 436 b 501 374 452 430 484 405 b 518 268 518 342 522 304 b 475 182 514 235 503 202 b 437 168 464 173 451 168 b 365 256 392 169 369 215 b 348 299 363 272 361 291 b 321 304 340 304 330 304 b 78 299 240 302 159 300 b 64 295 73 299 68 298 b 60 280 60 291 60 285 b 58 166 59 242 59 204 b 67 54 57 128 57 90 b 134 -32 77 18 100 -17 b 202 -44 155 -41 179 -43 b 629 39 351 -53 515 -56 b 735 273 697 96 737 184 b 659 460 733 341 705 409 b 664 526 641 479 644 509 b 718 632 695 552 716 591 b 583 843 722 719 651 790 b 514 885 562 860 540 877 b 450 892 494 891 472 892 b 331 886 411 892 371 890 b 118 816 257 877 178 863 b 52 635 64 774 29 700 z "},"4":{"ha":674,"x_min":0,"x_max":0,"o":"m 104 809 b 45 576 84 732 65 654 b 43 383 29 512 13 442 b 247 297 78 312 169 285 b 304 276 270 301 303 299 b 298 256 304 269 301 262 b 290 206 292 240 291 223 b 359 -1 288 130 297 42 b 502 -28 400 -28 453 -29 b 583 -4 531 -28 565 -26 b 600 59 597 13 599 37 b 614 455 605 191 610 323 b 563 808 618 575 620 702 b 484 888 545 842 520 874 b 421 897 464 895 442 897 b 293 875 377 896 334 889 b 268 862 284 873 274 869 b 253 822 257 852 254 837 b 283 466 242 703 283 585 b 266 433 283 453 279 435 b 239 455 254 431 245 444 b 217 717 202 537 194 631 b 218 745 219 726 222 736 b 203 758 215 751 209 754 b 120 812 176 776 148 794 z "},"5":{"ha":615,"x_min":0,"x_max":0,"o":"m 90 809 b 69 527 68 717 61 621 b 76 507 69 520 70 512 b 92 503 80 504 86 504 b 284 445 159 500 226 480 b 367 339 324 421 363 385 b 279 264 371 292 321 243 b 237 375 242 283 241 334 b 220 414 236 390 232 406 b 195 422 213 419 204 421 b 60 427 150 428 105 429 b 44 422 55 426 48 426 b 33 403 37 418 35 410 b 32 185 16 332 12 256 b 165 17 53 115 100 50 b 321 -18 213 -6 268 -13 b 377 -18 339 -20 358 -22 b 452 41 408 -10 431 16 b 534 154 482 77 513 113 b 559 434 576 240 574 340 b 517 569 551 481 540 528 b 411 656 494 610 456 645 b 266 642 363 668 313 655 b 208 663 243 636 208 639 b 246 692 207 680 229 689 b 437 677 310 703 376 698 b 460 674 444 675 452 672 b 479 707 473 678 477 694 b 485 845 486 753 488 799 b 473 883 485 858 483 873 b 426 892 461 894 442 893 b 87 819 311 880 197 856 z "},"6":{"ha":819,"x_min":0,"x_max":0,"o":"m 739 500 b 494 614 686 578 588 620 b 248 492 401 609 312 560 b 296 676 241 558 240 639 b 400 686 326 696 366 697 b 496 636 435 676 466 656 b 504 695 498 655 501 675 b 497 833 510 741 515 790 b 385 890 479 876 428 909 l 387 893 b 227 822 328 891 274 858 b 71 644 164 774 104 717 b 40 537 56 610 47 574 b 44 253 23 443 20 345 b 204 23 69 161 123 74 b 398 -43 262 -14 330 -32 b 480 -48 425 -47 453 -50 b 730 146 590 -40 679 48 b 739 500 788 256 808 398 z m 566 260 b 453 142 528 220 491 181 l 349 272 b 311 321 335 287 321 302 b 303 381 302 339 297 362 b 400 422 315 419 363 435 b 473 335 437 408 462 373 b 532 436 459 377 488 428 b 622 363 575 444 621 407 b 566 260 623 322 593 289 z "},"7":{"ha":876,"x_min":0,"x_max":0,"o":"m 72 803 b 114 657 63 752 81 697 b 243 568 148 616 194 588 b 290 558 258 562 274 557 b 348 576 310 558 330 567 b 462 632 386 595 424 613 b 478 474 467 579 472 527 b 476 458 478 469 479 463 b 457 450 472 452 464 451 b 372 439 429 446 400 442 b 254 378 326 432 272 421 b 300 279 238 341 262 294 b 411 306 337 264 383 278 b 349 10 370 213 348 111 b 363 -44 350 -9 351 -29 b 391 -60 371 -52 381 -57 b 539 -15 442 -77 500 -54 b 622 123 577 23 600 73 b 683 258 643 168 663 213 b 802 281 714 221 784 236 b 737 391 819 326 785 381 b 649 398 708 397 678 389 b 724 642 687 475 723 557 b 603 853 725 728 683 820 b 456 864 557 872 506 869 b 71 803 327 853 198 832 z "},"8":{"ha":751,"x_min":0,"x_max":0,"o":"m 596 503 b 581 522 590 509 583 515 b 586 558 576 534 581 547 b 584 765 609 625 610 700 b 440 911 558 831 505 886 b 279 932 389 930 334 932 b 84 871 209 932 129 926 b 48 746 57 836 50 790 b 73 581 45 690 50 632 b 195 475 96 530 140 487 l 207 466 b 120 375 165 454 135 416 b 108 246 106 334 106 290 b 222 -9 114 150 141 43 b 322 -45 253 -28 288 -38 b 475 -55 373 -56 424 -63 b 707 182 592 -36 686 66 b 596 503 729 298 681 422 z m 253 692 b 249 725 248 702 245 714 b 301 747 255 745 281 754 b 341 700 321 739 334 720 b 372 754 333 722 349 750 b 421 715 395 758 420 738 b 390 659 421 693 405 675 b 330 596 370 638 350 617 l 274 666 b 253 692 266 674 258 682 z m 452 162 b 391 98 432 141 411 120 l 335 168 b 315 195 328 177 320 185 b 310 228 309 205 307 217 b 363 249 317 248 343 257 b 402 203 382 242 396 223 b 433 257 394 225 410 253 b 482 217 457 261 481 241 b 452 162 483 196 467 178 z "},"9":{"ha":806,"x_min":0,"x_max":0,"o":"m 759 500 b 688 752 748 587 730 675 b 495 921 647 830 579 896 b 331 943 443 937 385 949 b 234 932 302 939 263 938 b 89 849 164 918 114 881 b 59 582 34 779 48 671 b 156 423 67 519 108 465 b 218 380 175 406 195 391 b 499 416 306 338 409 377 l 492 407 b 500 195 506 337 508 266 b 450 138 496 167 477 129 b 424 163 438 142 431 153 b 128 278 359 254 238 301 b 84 252 111 274 92 267 b 79 219 78 242 78 230 b 129 55 82 161 99 104 b 187 -4 144 31 162 8 b 266 -16 211 -16 239 -16 b 467 -17 333 -16 400 -17 b 565 -3 500 -17 535 -17 b 644 77 599 13 623 46 b 758 305 693 147 740 221 b 759 500 771 369 767 435 z m 426 577 b 313 459 388 537 351 498 l 209 588 b 171 638 195 604 181 619 b 163 698 161 656 157 678 b 260 739 175 736 223 752 b 333 652 297 725 322 689 b 392 753 319 694 348 745 b 482 679 435 761 481 723 b 426 577 483 639 453 606 z "},"\u0000":{"ha":0,"x_min":0,"x_max":0,"o":""},"\n":{"ha":0,"x_min":0,"x_max":0,"o":""},"\r":{"ha":0,"x_min":0,"x_max":0,"o":""}," ":{"ha":429,"x_min":0,"x_max":0,"o":""},"!":{"ha":375,"x_min":0,"x_max":0,"o":"m 350 1005 b 259 1168 342 1070 320 1144 b 103 1094 200 1190 133 1149 b 71 910 73 1038 72 973 b 136 237 70 684 75 454 l 133 211 b 243 294 173 234 213 258 b 308 477 284 345 297 412 b 350 1005 339 652 369 829 z m 255 101 b 149 106 222 116 184 112 b 123 90 139 104 127 98 l 123 99 b 75 23 90 96 78 55 b 88 -24 73 6 73 -16 b 106 -28 93 -27 100 -27 b 209 -26 141 -30 175 -29 b 293 12 241 -24 278 -16 b 255 101 310 44 287 85 z "},"+":{"ha":624,"x_min":0,"x_max":0,"o":"m 550 597 b 533 635 548 611 545 627 b 505 641 525 640 515 641 b 426 644 479 642 452 643 b 402 654 417 644 406 646 b 404 673 400 660 402 667 b 414 834 422 724 426 781 b 404 857 413 842 410 851 b 376 866 396 864 386 865 b 220 831 321 870 257 872 b 195 734 197 805 190 768 b 221 648 198 704 210 676 b 96 654 180 658 137 660 b 78 648 89 654 83 652 b 72 627 73 643 72 634 b 70 561 71 605 70 583 b 74 526 69 549 69 536 b 214 468 96 478 185 513 b 232 356 235 436 205 384 b 286 343 246 343 267 343 b 399 345 323 344 361 345 b 429 356 410 346 423 347 b 433 377 433 362 433 370 b 432 456 433 403 432 430 b 436 478 432 464 432 472 b 502 483 449 498 479 482 b 551 527 526 484 545 505 b 550 597 557 550 554 574 z "},"?":{"ha":896,"x_min":0,"x_max":0,"o":"m 826 637 b 753 876 822 721 787 800 b 685 987 735 916 717 957 b 563 1050 652 1019 607 1036 b 264 1077 466 1081 362 1102 b 70 869 165 1052 75 970 b 157 730 66 809 100 744 l 170 732 b 291 774 211 746 251 760 b 326 778 302 777 314 781 b 343 714 349 770 352 737 b 176 510 309 631 193 597 b 186 420 170 480 178 449 b 256 269 201 366 220 312 b 403 204 292 226 348 196 b 469 253 432 208 460 225 b 469 316 475 273 469 295 b 587 467 468 384 526 439 b 774 543 648 496 716 509 b 817 583 791 553 808 565 b 826 637 825 599 826 619 z m 498 100 b 353 104 454 124 400 120 l 362 116 b 340 -18 331 80 323 26 b 376 -62 347 -36 359 -53 b 425 -73 390 -71 408 -72 b 540 -27 468 -74 518 -64 b 498 100 566 16 541 76 z "},"A":{"ha":761,"x_min":0,"x_max":0,"o":"m 721 208 b 692 303 711 240 702 272 b 686 329 690 312 688 321 b 537 806 643 490 590 648 b 533 819 536 811 535 815 b 547 832 538 823 543 827 b 540 928 570 861 565 901 b 461 962 520 949 489 956 b 363 972 428 968 396 972 b 265 965 330 973 297 970 b 190 935 238 960 210 954 b 179 846 166 912 162 875 b 188 833 181 841 184 837 b 175 801 183 823 179 812 b 13 307 127 668 14 313 b 0 265 10 293 5 279 b -23 165 -10 232 -21 200 b 81 14 -27 95 16 39 b 336 76 168 -20 272 11 b 438 21 363 49 399 30 b 561 14 478 11 520 11 b 658 28 593 16 628 17 b 731 102 693 41 721 66 b 721 208 740 137 731 174 z m 479 424 b 387 386 468 390 422 374 b 317 466 352 398 328 431 b 262 372 331 427 303 380 b 176 439 221 364 177 398 b 228 535 174 476 202 507 b 334 645 263 571 299 608 l 434 526 b 470 480 447 512 461 497 b 479 424 480 463 484 443 z "},"À":{"ha":761,"x_min":0,"x_max":0,"o":"m 721 208 b 692 303 711 240 702 272 b 686 329 690 312 688 321 b 537 806 643 490 590 648 b 533 819 536 811 535 815 b 547 832 538 823 543 827 b 540 928 570 861 565 901 b 461 962 520 949 489 956 b 363 972 428 968 396 972 b 265 965 330 973 297 970 b 190 935 238 960 210 954 b 179 846 166 912 162 875 b 188 833 181 841 184 837 b 175 801 183 823 179 812 b 13 307 127 668 14 313 b 0 265 10 293 5 279 b -23 165 -10 232 -21 200 b 81 14 -27 95 16 39 b 336 76 168 -20 272 11 b 438 21 363 49 399 30 b 561 14 478 11 520 11 b 658 28 593 16 628 17 b 731 102 693 41 721 66 b 721 208 740 137 731 174 z m 479 424 b 387 386 468 390 422 374 b 317 466 352 398 328 431 b 262 372 331 427 303 380 b 176 439 221 364 177 398 b 228 535 174 476 202 507 b 334 645 263 571 299 608 l 434 526 b 470 480 447 512 461 497 b 479 424 480 463 484 443 z "},"Á":{"ha":761,"x_min":0,"x_max":0,"o":"m 721 208 b 692 303 711 240 702 272 b 686 329 690 312 688 321 b 537 806 643 490 590 648 b 533 819 536 811 535 815 b 547 832 538 823 543 827 b 540 928 570 861 565 901 b 461 962 520 949 489 956 b 363 972 428 968 396 972 b 265 965 330 973 297 970 b 190 935 238 960 210 954 b 179 846 166 912 162 875 b 188 833 181 841 184 837 b 175 801 183 823 179 812 b 13 307 127 668 14 313 b 0 265 10 293 5 279 b -23 165 -10 232 -21 200 b 81 14 -27 95 16 39 b 336 76 168 -20 272 11 b 438 21 363 49 399 30 b 561 14 478 11 520 11 b 658 28 593 16 628 17 b 731 102 693 41 721 66 b 721 208 740 137 731 174 z m 479 424 b 387 386 468 390 422 374 b 317 466 352 398 328 431 b 262 372 331 427 303 380 b 176 439 221 364 177 398 b 228 535 174 476 202 507 b 334 645 263 571 299 608 l 434 526 b 470 480 447 512 461 497 b 479 424 480 463 484 443 z "},"Â":{"ha":761,"x_min":0,"x_max":0,"o":"m 721 208 b 692 303 711 240 702 272 b 686 329 690 312 688 321 b 537 806 643 490 590 648 b 533 819 536 811 535 815 b 547 832 538 823 543 827 b 540 928 570 861 565 901 b 461 962 520 949 489 956 b 363 972 428 968 396 972 b 265 965 330 973 297 970 b 190 935 238 960 210 954 b 179 846 166 912 162 875 b 188 833 181 841 184 837 b 175 801 183 823 179 812 b 13 307 127 668 14 313 b 0 265 10 293 5 279 b -23 165 -10 232 -21 200 b 81 14 -27 95 16 39 b 336 76 168 -20 272 11 b 438 21 363 49 399 30 b 561 14 478 11 520 11 b 658 28 593 16 628 17 b 731 102 693 41 721 66 b 721 208 740 137 731 174 z m 479 424 b 387 386 468 390 422 374 b 317 466 352 398 328 431 b 262 372 331 427 303 380 b 176 439 221 364 177 398 b 228 535 174 476 202 507 b 334 645 263 571 299 608 l 434 526 b 470 480 447 512 461 497 b 479 424 480 463 484 443 z "},"Ã":{"ha":761,"x_min":0,"x_max":0,"o":"m 721 208 b 692 303 711 240 702 272 b 686 329 690 312 688 321 b 537 806 643 490 590 648 b 533 819 536 811 535 815 b 547 832 538 823 543 827 b 540 928 570 861 565 901 b 461 962 520 949 489 956 b 363 972 428 968 396 972 b 265 965 330 973 297 970 b 190 935 238 960 210 954 b 179 846 166 912 162 875 b 188 833 181 841 184 837 b 175 801 183 823 179 812 b 13 307 127 668 14 313 b 0 265 10 293 5 279 b -23 165 -10 232 -21 200 b 81 14 -27 95 16 39 b 336 76 168 -20 272 11 b 438 21 363 49 399 30 b 561 14 478 11 520 11 b 658 28 593 16 628 17 b 731 102 693 41 721 66 b 721 208 740 137 731 174 z m 479 424 b 387 386 468 390 422 374 b 317 466 352 398 328 431 b 262 372 331 427 303 380 b 176 439 221 364 177 398 b 228 535 174 476 202 507 b 334 645 263 571 299 608 l 434 526 b 470 480 447 512 461 497 b 479 424 480 463 484 443 z "},"Ä":{"ha":761,"x_min":0,"x_max":0,"o":"m 721 208 b 692 303 711 240 702 272 b 686 329 690 312 688 321 b 537 806 643 490 590 648 b 533 819 536 811 535 815 b 547 832 538 823 543 827 b 540 928 570 861 565 901 b 461 962 520 949 489 956 b 363 972 428 968 396 972 b 265 965 330 973 297 970 b 190 935 238 960 210 954 b 179 846 166 912 162 875 b 188 833 181 841 184 837 b 175 801 183 823 179 812 b 13 307 127 668 14 313 b 0 265 10 293 5 279 b -23 165 -10 232 -21 200 b 81 14 -27 95 16 39 b 336 76 168 -20 272 11 b 438 21 363 49 399 30 b 561 14 478 11 520 11 b 658 28 593 16 628 17 b 731 102 693 41 721 66 b 721 208 740 137 731 174 z m 479 424 b 387 386 468 390 422 374 b 317 466 352 398 328 431 b 262 372 331 427 303 380 b 176 439 221 364 177 398 b 228 535 174 476 202 507 b 334 645 263 571 299 608 l 434 526 b 470 480 447 512 461 497 b 479 424 480 463 484 443 z "},"Å":{"ha":761,"x_min":0,"x_max":0,"o":"m 721 208 b 692 303 711 240 702 272 b 686 329 690 312 688 321 b 537 806 643 490 590 648 b 533 819 536 811 535 815 b 547 832 538 823 543 827 b 540 928 570 861 565 901 b 461 962 520 949 489 956 b 363 972 428 968 396 972 b 265 965 330 973 297 970 b 190 935 238 960 210 954 b 179 846 166 912 162 875 b 188 833 181 841 184 837 b 175 801 183 823 179 812 b 13 307 127 668 14 313 b 0 265 10 293 5 279 b -23 165 -10 232 -21 200 b 81 14 -27 95 16 39 b 336 76 168 -20 272 11 b 438 21 363 49 399 30 b 561 14 478 11 520 11 b 658 28 593 16 628 17 b 731 102 693 41 721 66 b 721 208 740 137 731 174 z m 479 424 b 387 386 468 390 422 374 b 317 466 352 398 328 431 b 262 372 331 427 303 380 b 176 439 221 364 177 398 b 228 535 174 476 202 507 b 334 645 263 571 299 608 l 434 526 b 470 480 447 512 461 497 b 479 424 480 463 484 443 z "},"B":{"ha":790,"x_min":0,"x_max":0,"o":"m 767 291 b 653 523 753 376 631 440 b 667 803 683 637 684 717 b 303 967 643 927 471 988 b 73 911 221 978 131 978 b 41 791 43 877 33 835 b 90 689 48 753 67 720 b 68 373 92 583 87 476 b 72 146 50 278 51 203 b 65 134 70 142 67 138 b 106 27 42 90 61 44 b 177 14 129 19 154 17 b 259 6 204 11 232 8 b 434 6 317 2 376 2 b 445 9 438 6 442 7 b 511 15 466 10 489 12 b 767 291 664 39 790 153 z m 399 741 b 428 765 408 750 417 759 b 465 771 439 771 452 775 b 491 713 488 765 499 736 b 440 667 484 690 463 675 b 503 633 465 676 497 660 b 460 577 508 607 487 578 b 396 609 436 575 414 592 b 322 675 371 631 347 653 z m 481 214 b 417 247 457 213 435 230 b 343 313 392 269 367 291 l 420 379 b 449 403 429 388 438 397 b 486 409 460 409 473 413 b 512 351 509 403 520 374 b 461 305 505 328 484 312 b 524 271 486 314 518 297 b 481 214 529 245 508 216 z "},"C":{"ha":704,"x_min":0,"x_max":0,"o":"m 597 481 b 394 459 538 546 459 513 b 367 440 386 452 377 446 b 320 460 349 429 326 439 b 341 708 290 558 299 640 b 400 696 357 734 393 726 b 447 577 410 651 421 606 b 599 594 470 552 558 566 b 649 808 670 641 689 734 b 490 960 615 871 552 926 b 334 958 448 982 383 972 b 20 562 147 904 52 755 b 198 65 -14 362 41 184 b 674 272 389 -81 656 35 b 597 481 679 341 643 431 z "},"Ç":{"ha":704,"x_min":0,"x_max":0,"o":"m 597 481 b 394 459 538 546 459 513 b 367 440 386 452 377 446 b 320 460 349 429 326 439 b 341 708 290 558 299 640 b 400 696 357 734 393 726 b 447 577 410 651 421 606 b 599 594 470 552 558 566 b 649 808 670 641 689 734 b 490 960 615 871 552 926 b 334 958 448 982 383 972 b 20 562 147 904 52 755 b 198 65 -14 362 41 184 b 674 272 389 -81 656 35 b 597 481 679 341 643 431 z "},"D":{"ha":815,"x_min":0,"x_max":0,"o":"m 739 704 b 298 963 656 882 506 972 b 97 892 198 958 127 934 b 76 881 90 889 82 885 b 29 789 45 860 28 824 b 116 676 30 734 68 695 b 93 248 133 533 106 392 b 96 212 92 237 93 224 b 70 60 54 175 37 113 b 182 -6 93 23 138 1 b 338 -1 232 -14 289 -11 b 409 31 365 4 390 15 b 695 160 523 45 640 93 b 739 704 835 330 826 519 z m 538 460 b 428 344 501 421 464 383 l 321 467 b 282 513 307 481 292 496 b 273 572 272 531 267 552 b 369 613 284 608 332 625 b 444 531 406 601 432 567 b 500 629 429 571 457 621 b 592 561 544 638 590 603 b 538 460 594 522 565 489 z "},"E":{"ha":699,"x_min":0,"x_max":0,"o":"m 497 398 b 495 424 497 407 496 415 b 525 435 506 426 517 431 b 540 533 561 456 570 503 b 485 556 524 550 505 556 b 479 630 483 580 481 604 b 635 744 556 622 623 647 b 510 949 648 845 608 929 b 203 954 411 968 304 969 b 46 737 67 935 37 876 b 52 362 53 612 66 485 b 359 2 22 99 91 9 b 439 4 386 1 413 1 b 672 216 576 17 662 96 b 497 398 680 318 630 367 z "},"È":{"ha":699,"x_min":0,"x_max":0,"o":"m 497 398 b 495 424 497 407 496 415 b 525 435 506 426 517 431 b 540 533 561 456 570 503 b 485 556 524 550 505 556 b 479 630 483 580 481 604 b 635 744 556 622 623 647 b 510 949 648 845 608 929 b 203 954 411 968 304 969 b 46 737 67 935 37 876 b 52 362 53 612 66 485 b 359 2 22 99 91 9 b 439 4 386 1 413 1 b 672 216 576 17 662 96 b 497 398 680 318 630 367 z "},"É":{"ha":699,"x_min":0,"x_max":0,"o":"m 497 398 b 495 424 497 407 496 415 b 525 435 506 426 517 431 b 540 533 561 456 570 503 b 485 556 524 550 505 556 b 479 630 483 580 481 604 b 635 744 556 622 623 647 b 510 949 648 845 608 929 b 203 954 411 968 304 969 b 46 737 67 935 37 876 b 52 362 53 612 66 485 b 359 2 22 99 91 9 b 439 4 386 1 413 1 b 672 216 576 17 662 96 b 497 398 680 318 630 367 z "},"Ê":{"ha":699,"x_min":0,"x_max":0,"o":"m 497 398 b 495 424 497 407 496 415 b 525 435 506 426 517 431 b 540 533 561 456 570 503 b 485 556 524 550 505 556 b 479 630 483 580 481 604 b 635 744 556 622 623 647 b 510 949 648 845 608 929 b 203 954 411 968 304 969 b 46 737 67 935 37 876 b 52 362 53 612 66 485 b 359 2 22 99 91 9 b 439 4 386 1 413 1 b 672 216 576 17 662 96 b 497 398 680 318 630 367 z "},"Ë":{"ha":699,"x_min":0,"x_max":0,"o":"m 497 398 b 495 424 497 407 496 415 b 525 435 506 426 517 431 b 540 533 561 456 570 503 b 485 556 524 550 505 556 b 479 630 483 580 481 604 b 635 744 556 622 623 647 b 510 949 648 845 608 929 b 203 954 411 968 304 969 b 46 737 67 935 37 876 b 52 362 53 612 66 485 b 359 2 22 99 91 9 b 439 4 386 1 413 1 b 672 216 576 17 662 96 b 497 398 680 318 630 367 z "},"F":{"ha":640,"x_min":0,"x_max":0,"o":"m 575 930 b 131 923 427 988 276 989 b 59 715 42 883 9 805 b 79 438 110 622 100 533 b 54 256 65 378 58 317 b 174 30 47 155 80 71 b 454 77 273 -14 372 1 b 496 329 528 146 540 235 b 483 363 491 341 486 353 b 495 390 487 373 491 381 b 572 520 518 435 560 470 b 525 631 583 564 569 612 b 371 632 473 654 423 623 b 369 632 370 632 370 632 b 396 718 377 667 381 696 b 472 705 402 728 450 718 b 650 743 545 660 612 661 b 575 930 689 826 656 898 z "},"G":{"ha":769,"x_min":0,"x_max":0,"o":"m 680 565 b 595 634 657 593 628 617 b 588 639 593 635 590 637 b 577 641 584 640 581 641 b 293 587 481 680 368 661 b 237 504 269 563 250 535 b 349 734 234 597 276 702 b 465 723 381 747 428 733 b 564 676 500 714 531 692 b 580 668 564 676 571 673 b 682 744 645 641 668 691 b 554 949 705 827 648 913 b 93 786 388 1011 181 941 b 77 210 -13 598 -7 403 b 428 9 144 57 264 -8 b 739 287 587 25 700 126 b 680 565 769 408 754 489 z m 495 312 b 423 243 471 289 447 266 l 363 324 b 341 355 355 334 346 344 b 352 411 332 373 331 397 b 388 418 362 418 375 420 b 440 360 415 412 433 387 b 478 420 432 386 451 417 b 531 374 504 424 531 401 b 495 312 531 349 512 329 z "},"H":{"ha":763,"x_min":0,"x_max":0,"o":"m 715 232 b 695 809 648 426 616 611 b 633 948 709 844 670 929 b 527 963 605 963 565 967 b 422 926 490 969 449 956 b 400 803 393 892 385 843 b 399 800 399 802 399 801 b 411 687 391 765 413 724 b 375 652 411 675 390 664 b 371 823 369 709 368 766 b 372 899 384 846 385 874 b 172 966 334 977 241 954 b 150 959 163 967 155 964 b 44 882 105 951 63 925 b 76 794 27 842 46 814 b 77 791 77 793 77 792 b 19 221 171 585 154 404 b 62 42 -6 188 25 84 b 285 22 118 -22 206 -24 b 348 202 355 63 367 128 b 315 334 337 246 315 290 b 370 408 315 359 351 383 b 409 329 384 382 408 356 b 383 230 411 296 392 263 b 547 13 345 98 411 10 b 715 232 684 15 761 96 z "},"I":{"ha":431,"x_min":0,"x_max":0,"o":"m 194 684 b 347 822 276 696 343 726 b 193 971 350 905 277 976 b 49 825 104 965 53 915 b 194 684 46 727 110 695 z m 348 522 b 353 544 351 529 352 537 b 374 589 362 558 371 572 b 333 664 381 622 364 652 b 227 668 300 676 260 671 b 143 671 221 668 155 669 b 103 673 130 673 117 675 b 52 632 80 670 59 655 b 54 600 49 621 50 610 b 104 63 -16 489 68 110 b 364 104 180 -36 322 -10 b 348 522 417 247 405 389 z "},"Ì":{"ha":431,"x_min":0,"x_max":0,"o":"m 194 684 b 347 822 276 696 343 726 b 193 971 350 905 277 976 b 49 825 104 965 53 915 b 194 684 46 727 110 695 z m 348 522 b 353 544 351 529 352 537 b 374 589 362 558 371 572 b 333 664 381 622 364 652 b 227 668 300 676 260 671 b 143 671 221 668 155 669 b 103 673 130 673 117 675 b 52 632 80 670 59 655 b 54 600 49 621 50 610 b 104 63 -16 489 68 110 b 364 104 180 -36 322 -10 b 348 522 417 247 405 389 z "},"Í":{"ha":431,"x_min":0,"x_max":0,"o":"m 194 684 b 347 822 276 696 343 726 b 193 971 350 905 277 976 b 49 825 104 965 53 915 b 194 684 46 727 110 695 z m 348 522 b 353 544 351 529 352 537 b 374 589 362 558 371 572 b 333 664 381 622 364 652 b 227 668 300 676 260 671 b 143 671 221 668 155 669 b 103 673 130 673 117 675 b 52 632 80 670 59 655 b 54 600 49 621 50 610 b 104 63 -16 489 68 110 b 364 104 180 -36 322 -10 b 348 522 417 247 405 389 z "},"Î":{"ha":431,"x_min":0,"x_max":0,"o":"m 194 684 b 347 822 276 696 343 726 b 193 971 350 905 277 976 b 49 825 104 965 53 915 b 194 684 46 727 110 695 z m 348 522 b 353 544 351 529 352 537 b 374 589 362 558 371 572 b 333 664 381 622 364 652 b 227 668 300 676 260 671 b 143 671 221 668 155 669 b 103 673 130 673 117 675 b 52 632 80 670 59 655 b 54 600 49 621 50 610 b 104 63 -16 489 68 110 b 364 104 180 -36 322 -10 b 348 522 417 247 405 389 z "},"Ï":{"ha":431,"x_min":0,"x_max":0,"o":"m 194 684 b 347 822 276 696 343 726 b 193 971 350 905 277 976 b 49 825 104 965 53 915 b 194 684 46 727 110 695 z m 348 522 b 353 544 351 529 352 537 b 374 589 362 558 371 572 b 333 664 381 622 364 652 b 227 668 300 676 260 671 b 143 671 221 668 155 669 b 103 673 130 673 117 675 b 52 632 80 670 59 655 b 54 600 49 621 50 610 b 104 63 -16 489 68 110 b 364 104 180 -36 322 -10 b 348 522 417 247 405 389 z "},"J":{"ha":683,"x_min":0,"x_max":0,"o":"m 691 861 b 688 878 689 866 688 872 b 665 937 688 899 681 920 b 587 972 643 960 616 970 b 580 972 584 972 582 972 b 296 955 556 977 326 964 b 174 821 234 936 173 892 b 225 740 175 786 195 757 b 261 736 226 740 245 738 b 295 717 274 734 286 727 b 333 673 307 703 316 690 b 335 465 374 627 333 536 b 255 441 335 459 295 447 b 210 456 239 439 222 444 b 210 456 210 456 210 456 b 152 501 193 474 176 493 b -11 405 119 512 -5 436 b 20 205 -16 378 7 232 b 24 196 22 202 23 199 b 350 6 64 64 191 -13 b 639 455 569 33 682 215 b 617 708 624 538 617 623 b 642 752 618 726 627 742 b 685 798 659 763 675 778 b 691 861 696 819 697 841 z "},"K":{"ha":747,"x_min":0,"x_max":0,"o":"m 698 323 b 544 576 662 412 597 491 b 669 885 640 652 721 748 b 545 981 653 928 590 978 b 333 721 388 995 384 851 b 331 809 332 772 332 790 b 204 954 329 893 295 954 b 52 814 114 955 44 897 b 6 181 74 599 72 389 b 17 125 1 165 11 143 b 208 4 48 34 107 -22 b 320 191 303 27 329 101 b 305 269 318 217 305 243 b 321 353 305 297 312 326 b 360 357 323 358 359 360 b 384 263 371 326 381 295 b 366 209 385 246 371 228 b 505 19 341 103 396 27 b 698 323 664 7 765 155 z "},"L":{"ha":746,"x_min":0,"x_max":0,"o":"m 644 505 b 502 510 604 538 542 551 b 476 460 488 496 480 478 b 396 452 451 459 424 457 b 447 776 415 565 446 670 b 445 810 447 786 447 798 b 490 830 461 813 477 819 b 522 908 513 848 528 877 b 305 981 506 994 316 981 b 257 981 289 983 273 983 b 55 952 198 981 54 966 b 33 884 38 934 29 910 b 108 804 40 839 71 815 b 79 270 160 619 122 447 b 217 6 48 141 99 25 b 596 32 340 -13 474 1 b 621 44 605 34 613 38 b 648 49 630 40 639 41 b 721 248 698 104 723 176 b 644 505 729 343 721 443 z m 424 891 b 422 891 423 891 423 891 b 422 892 422 891 422 892 b 424 891 422 892 423 892 z m 651 417 b 649 422 650 419 649 421 b 652 417 650 420 651 419 b 651 417 652 417 651 417 z "},"M":{"ha":974,"x_min":0,"x_max":0,"o":"m 924 287 b 839 616 886 396 851 504 b 907 869 897 689 944 775 b 798 961 888 917 849 953 b 757 961 784 963 771 963 b 641 910 717 962 660 939 b 571 708 602 853 591 777 b 567 687 569 701 568 694 b 504 685 532 686 539 686 b 470 812 494 728 483 770 b 279 968 441 904 375 971 b 73 902 209 967 127 944 b 97 694 5 849 25 741 b 163 666 121 679 143 669 b 147 374 151 569 145 471 b 54 214 116 320 76 271 b 140 26 23 131 57 59 b 322 100 218 -5 294 23 b 372 367 353 184 361 277 b 376 423 375 385 376 404 b 399 387 391 421 398 406 b 400 310 400 363 397 335 b 411 275 400 289 403 279 b 444 249 418 264 429 255 b 570 327 503 226 551 277 b 600 407 579 353 582 385 b 638 416 609 419 626 423 l 630 320 b 614 260 628 299 622 279 l 598 225 b 590 151 588 202 585 176 b 804 20 614 34 683 -8 b 924 287 913 45 971 153 z "},"N":{"ha":785,"x_min":0,"x_max":0,"o":"m 727 284 b 696 776 663 447 646 605 b 619 966 719 854 714 937 b 428 830 543 989 449 922 b 415 689 419 789 420 746 b 314 893 379 766 358 842 b 165 955 280 932 212 964 b 71 835 127 948 78 881 b 13 253 44 642 30 447 b 153 -13 2 130 68 8 b 367 174 251 -37 322 24 b 385 129 374 157 379 142 b 654 -2 447 1 555 -52 b 727 284 744 42 780 151 z "},"Ñ":{"ha":785,"x_min":0,"x_max":0,"o":"m 727 284 b 696 776 663 447 646 605 b 619 966 719 854 714 937 b 428 830 543 989 449 922 b 415 689 419 789 420 746 b 314 893 379 766 358 842 b 165 955 280 932 212 964 b 71 835 127 948 78 881 b 13 253 44 642 30 447 b 153 -13 2 130 68 8 b 367 174 251 -37 322 24 b 385 129 374 157 379 142 b 654 -2 447 1 555 -52 b 727 284 744 42 780 151 z "},"O":{"ha":758,"x_min":0,"x_max":0,"o":"m 625 841 b 385 968 559 923 472 965 l 385 969 b 379 969 383 969 381 969 b 372 969 376 969 374 969 l 372 968 b 132 841 285 965 198 923 b 123 131 -23 650 -28 328 b 379 1 192 41 285 -3 b 634 131 472 -3 565 41 b 625 841 785 328 780 650 z m 467 457 b 365 357 433 423 399 390 l 278 474 b 246 518 266 488 254 502 b 241 572 238 535 235 554 b 327 604 252 604 295 617 b 388 526 359 591 379 559 b 443 612 377 563 404 606 b 520 545 481 618 520 584 b 467 457 519 510 492 481 z "},"Ò":{"ha":758,"x_min":0,"x_max":0,"o":"m 625 841 b 385 968 559 923 472 965 l 385 969 b 379 969 383 969 381 969 b 372 969 376 969 374 969 l 372 968 b 132 841 285 965 198 923 b 123 131 -23 650 -28 328 b 379 1 192 41 285 -3 b 634 131 472 -3 565 41 b 625 841 785 328 780 650 z m 467 457 b 365 357 433 423 399 390 l 278 474 b 246 518 266 488 254 502 b 241 572 238 535 235 554 b 327 604 252 604 295 617 b 388 526 359 591 379 559 b 443 612 377 563 404 606 b 520 545 481 618 520 584 b 467 457 519 510 492 481 z "},"Ó":{"ha":758,"x_min":0,"x_max":0,"o":"m 625 841 b 385 968 559 923 472 965 l 385 969 b 379 969 383 969 381 969 b 372 969 376 969 374 969 l 372 968 b 132 841 285 965 198 923 b 123 131 -23 650 -28 328 b 379 1 192 41 285 -3 b 634 131 472 -3 565 41 b 625 841 785 328 780 650 z m 467 457 b 365 357 433 423 399 390 l 278 474 b 246 518 266 488 254 502 b 241 572 238 535 235 554 b 327 604 252 604 295 617 b 388 526 359 591 379 559 b 443 612 377 563 404 606 b 520 545 481 618 520 584 b 467 457 519 510 492 481 z "},"Ô":{"ha":758,"x_min":0,"x_max":0,"o":"m 625 841 b 385 968 559 923 472 965 l 385 969 b 379 969 383 969 381 969 b 372 969 376 969 374 969 l 372 968 b 132 841 285 965 198 923 b 123 131 -23 650 -28 328 b 379 1 192 41 285 -3 b 634 131 472 -3 565 41 b 625 841 785 328 780 650 z m 467 457 b 365 357 433 423 399 390 l 278 474 b 246 518 266 488 254 502 b 241 572 238 535 235 554 b 327 604 252 604 295 617 b 388 526 359 591 379 559 b 443 612 377 563 404 606 b 520 545 481 618 520 584 b 467 457 519 510 492 481 z "},"Õ":{"ha":758,"x_min":0,"x_max":0,"o":"m 625 841 b 385 968 559 923 472 965 l 385 969 b 379 969 383 969 381 969 b 372 969 376 969 374 969 l 372 968 b 132 841 285 965 198 923 b 123 131 -23 650 -28 328 b 379 1 192 41 285 -3 b 634 131 472 -3 565 41 b 625 841 785 328 780 650 z m 467 457 b 365 357 433 423 399 390 l 278 474 b 246 518 266 488 254 502 b 241 572 238 535 235 554 b 327 604 252 604 295 617 b 388 526 359 591 379 559 b 443 612 377 563 404 606 b 520 545 481 618 520 584 b 467 457 519 510 492 481 z "},"Ö":{"ha":758,"x_min":0,"x_max":0,"o":"m 625 841 b 385 968 559 923 472 965 l 385 969 b 379 969 383 969 381 969 b 372 969 376 969 374 969 l 372 968 b 132 841 285 965 198 923 b 123 131 -23 650 -28 328 b 379 1 192 41 285 -3 b 634 131 472 -3 565 41 b 625 841 785 328 780 650 z m 467 457 b 365 357 433 423 399 390 l 278 474 b 246 518 266 488 254 502 b 241 572 238 535 235 554 b 327 604 252 604 295 617 b 388 526 359 591 379 559 b 443 612 377 563 404 606 b 520 545 481 618 520 584 b 467 457 519 510 492 481 z "},"Ø":{"ha":758,"x_min":0,"x_max":0,"o":"m 625 841 b 385 968 559 923 472 965 l 385 969 b 379 969 383 969 381 969 b 372 969 376 969 374 969 l 372 968 b 132 841 285 965 198 923 b 123 131 -23 650 -28 328 b 379 1 192 41 285 -3 b 634 131 472 -3 565 41 b 625 841 785 328 780 650 z m 467 457 b 365 357 433 423 399 390 l 278 474 b 246 518 266 488 254 502 b 241 572 238 535 235 554 b 327 604 252 604 295 617 b 388 526 359 591 379 559 b 443 612 377 563 404 606 b 520 545 481 618 520 584 b 467 457 519 510 492 481 z "},"P":{"ha":647,"x_min":0,"x_max":0,"o":"m 626 780 b 215 964 556 920 393 993 b 63 738 61 940 19 887 b 40 350 103 603 101 479 b 22 172 15 299 12 229 b 281 4 44 49 162 -22 b 420 262 398 30 452 130 b 395 355 413 292 404 321 b 626 780 639 457 715 602 z m 517 744 b 464 672 513 714 488 691 b 367 595 431 646 399 621 l 302 703 b 278 744 293 716 283 730 b 278 791 272 759 271 777 b 355 812 291 818 329 826 b 402 739 382 798 397 768 b 456 809 395 771 422 807 b 517 744 489 810 520 777 z "},"Q":{"ha":797,"x_min":0,"x_max":0,"o":"m 720 150 b 703 322 673 211 671 252 b 625 830 786 504 738 676 b 182 851 505 993 320 1001 b 8 423 72 731 16 587 b 462 9 -8 96 172 -57 b 638 -89 532 -33 582 -80 b 750 -15 672 -95 742 -49 b 720 150 762 36 751 110 z m 526 550 b 473 478 523 520 497 497 b 376 401 441 452 409 427 l 311 509 b 288 551 302 522 293 536 b 288 597 282 565 281 583 b 365 618 300 624 339 632 b 411 545 391 604 406 574 b 466 615 404 578 432 613 b 526 550 499 616 530 583 z "},"R":{"ha":728,"x_min":0,"x_max":0,"o":"m 684 238 b 545 469 657 321 592 393 b 437 935 734 703 606 899 b 197 949 360 952 277 955 b 64 725 54 937 24 866 b 76 459 88 642 81 548 b 72 429 76 449 74 439 b 68 413 71 423 70 418 b 42 304 58 376 43 339 b 19 197 34 269 26 233 b 47 -22 5 124 2 42 b 223 -77 86 -77 159 -106 b 260 -50 238 -71 250 -61 b 283 -33 268 -46 276 -40 b 329 93 317 -1 324 49 b 352 344 339 176 347 260 b 355 142 353 277 355 210 b 452 -5 355 70 376 2 b 662 31 523 -11 621 -11 b 684 238 701 71 704 174 z m 152 -12 b 162 -10 155 -11 159 -11 b 152 -12 159 -11 155 -12 z m 495 727 b 443 654 492 696 467 674 b 348 574 412 627 380 601 l 281 682 b 256 722 272 695 262 708 b 255 769 251 737 249 754 b 332 791 268 796 306 805 b 380 719 359 778 375 748 b 433 790 373 752 400 788 b 495 727 466 792 498 760 z "},"S":{"ha":710,"x_min":0,"x_max":0,"o":"m 659 394 b 450 637 608 492 512 567 b 578 764 501 637 570 672 b 440 954 587 861 529 930 b 227 963 373 972 296 975 b 40 783 131 947 53 888 b 168 554 28 681 84 606 b 328 462 220 521 278 498 b 366 276 403 409 411 341 b 316 437 350 332 348 424 b 105 434 254 461 164 463 b 34 191 11 387 -2 290 b 482 9 89 37 301 -49 b 659 394 655 64 743 232 z "},"T":{"ha":704,"x_min":0,"x_max":0,"o":"m 716 829 b 548 951 684 885 610 942 b 185 943 429 968 301 969 b 21 791 120 928 56 855 b 74 648 3 760 39 664 b 293 629 133 620 211 633 b 293 582 293 628 298 604 b 209 249 266 471 233 361 b 380 7 184 128 264 19 b 587 202 491 -4 588 79 b 547 415 586 273 565 345 b 465 684 526 498 497 578 b 691 656 554 614 633 582 b 716 829 723 698 739 788 z "},"U":{"ha":729,"x_min":0,"x_max":0,"o":"m 698 402 b 695 780 693 528 691 654 b 541 967 699 892 642 966 b 391 789 445 968 382 898 b 422 633 395 736 418 685 b 425 416 429 561 431 488 b 371 359 423 394 391 360 b 316 414 353 358 318 392 b 318 617 310 481 312 550 b 347 809 323 682 346 745 b 204 967 349 915 296 968 b 45 797 104 967 45 903 b 45 378 45 663 45 529 b 340 2 41 147 142 12 b 698 402 577 -9 708 140 z "},"Ù":{"ha":729,"x_min":0,"x_max":0,"o":"m 698 402 b 695 780 693 528 691 654 b 541 967 699 892 642 966 b 391 789 445 968 382 898 b 422 633 395 736 418 685 b 425 416 429 561 431 488 b 371 359 423 394 391 360 b 316 414 353 358 318 392 b 318 617 310 481 312 550 b 347 809 323 682 346 745 b 204 967 349 915 296 968 b 45 797 104 967 45 903 b 45 378 45 663 45 529 b 340 2 41 147 142 12 b 698 402 577 -9 708 140 z "},"Ú":{"ha":729,"x_min":0,"x_max":0,"o":"m 698 402 b 695 780 693 528 691 654 b 541 967 699 892 642 966 b 391 789 445 968 382 898 b 422 633 395 736 418 685 b 425 416 429 561 431 488 b 371 359 423 394 391 360 b 316 414 353 358 318 392 b 318 617 310 481 312 550 b 347 809 323 682 346 745 b 204 967 349 915 296 968 b 45 797 104 967 45 903 b 45 378 45 663 45 529 b 340 2 41 147 142 12 b 698 402 577 -9 708 140 z "},"Û":{"ha":729,"x_min":0,"x_max":0,"o":"m 698 402 b 695 780 693 528 691 654 b 541 967 699 892 642 966 b 391 789 445 968 382 898 b 422 633 395 736 418 685 b 425 416 429 561 431 488 b 371 359 423 394 391 360 b 316 414 353 358 318 392 b 318 617 310 481 312 550 b 347 809 323 682 346 745 b 204 967 349 915 296 968 b 45 797 104 967 45 903 b 45 378 45 663 45 529 b 340 2 41 147 142 12 b 698 402 577 -9 708 140 z "},"Ü":{"ha":729,"x_min":0,"x_max":0,"o":"m 698 402 b 695 780 693 528 691 654 b 541 967 699 892 642 966 b 391 789 445 968 382 898 b 422 633 395 736 418 685 b 425 416 429 561 431 488 b 371 359 423 394 391 360 b 316 414 353 358 318 392 b 318 617 310 481 312 550 b 347 809 323 682 346 745 b 204 967 349 915 296 968 b 45 797 104 967 45 903 b 45 378 45 663 45 529 b 340 2 41 147 142 12 b 698 402 577 -9 708 140 z "},"V":{"ha":733,"x_min":0,"x_max":0,"o":"m 695 911 b 506 938 649 946 559 960 b 421 785 463 921 430 841 b 435 579 410 719 434 648 b 422 391 436 517 427 454 b 368 387 404 390 386 389 b 347 557 361 444 346 500 b 367 808 349 641 371 725 b 175 957 362 914 277 972 b 32 748 68 940 6 852 b 189 163 83 553 136 358 b 400 -8 218 55 278 -10 b 598 165 519 -6 571 63 b 744 741 648 357 705 547 b 695 911 755 794 733 881 z "},"W":{"ha":978,"x_min":0,"x_max":0,"o":"m 879 275 b 857 288 872 280 864 284 b 854 520 856 365 855 443 b 853 630 853 557 852 594 b 853 639 853 633 853 636 b 918 755 878 677 903 714 b 831 943 948 838 914 910 b 649 867 752 973 676 944 b 601 600 619 783 612 690 b 598 543 599 581 598 562 b 575 579 583 545 576 561 b 573 656 573 603 576 631 b 561 691 573 677 570 687 b 528 717 554 702 544 711 b 403 637 469 739 422 688 b 374 557 394 611 392 579 b 336 548 365 546 348 542 l 344 644 b 359 704 345 665 350 685 l 374 739 b 382 814 384 763 387 789 b 166 943 357 930 287 972 b 49 674 58 917 1 808 b 103 508 69 619 88 563 b 111 312 106 442 109 377 b 71 93 67 246 39 172 b 181 2 90 45 130 9 b 222 2 195 0 208 0 b 338 54 262 1 319 25 b 405 257 376 112 387 188 b 410 277 407 264 409 270 b 473 280 445 279 438 278 b 508 154 483 237 494 195 b 700 -1 538 62 604 -4 b 905 68 770 1 851 25 b 879 275 973 121 952 228 z "},"X":{"ha":833,"x_min":0,"x_max":0,"o":"m 774 955 b 603 1003 727 985 659 1014 b 532 907 557 994 522 951 b 489 827 513 885 498 858 b 462 669 474 776 471 721 b 419 801 436 712 430 757 b 371 892 411 838 394 869 b 341 969 379 921 371 952 b 208 935 293 996 246 962 b 204 932 207 934 205 933 b 186 921 198 928 192 925 b 164 909 178 918 171 913 b 91 867 140 895 115 881 b 17 771 55 845 19 817 b 100 699 15 723 54 693 b 117 702 106 699 111 700 b 114 171 232 520 232 356 b 204 -49 53 75 110 -25 b 419 106 303 -75 404 -3 b 422 198 423 137 421 167 b 607 -1 460 39 503 -11 b 747 290 764 13 849 166 b 757 669 629 433 642 545 b 782 708 768 680 775 694 b 794 733 786 716 790 725 b 853 809 824 746 847 774 b 774 955 863 870 823 924 z m 84 770 b 84 775 84 772 84 773 b 84 770 90 769 84 769 z "},"Y":{"ha":761,"x_min":0,"x_max":0,"o":"m 664 946 b 460 770 522 993 442 923 b 445 710 462 751 453 729 b 415 711 444 707 416 708 b 407 748 412 723 408 735 b 427 764 415 749 423 754 b 424 919 443 814 457 872 b 292 966 394 961 339 965 b 119 947 235 968 174 964 b 22 858 75 934 32 905 b 141 716 6 784 71 732 b 162 688 147 705 154 695 b 241 252 319 559 330 423 b 330 25 191 157 233 73 b 602 37 422 -21 516 -24 b 664 285 692 100 693 193 b 731 690 618 433 590 562 b 664 946 828 779 780 907 z "},"Ý":{"ha":761,"x_min":0,"x_max":0,"o":"m 664 946 b 460 770 522 993 442 923 b 445 710 462 751 453 729 b 415 711 444 707 416 708 b 407 748 412 723 408 735 b 427 764 415 749 423 754 b 424 919 443 814 457 872 b 292 966 394 961 339 965 b 119 947 235 968 174 964 b 22 858 75 934 32 905 b 141 716 6 784 71 732 b 162 688 147 705 154 695 b 241 252 319 559 330 423 b 330 25 191 157 233 73 b 602 37 422 -21 516 -24 b 664 285 692 100 693 193 b 731 690 618 433 590 562 b 664 946 828 779 780 907 z "},"Ÿ":{"ha":761,"x_min":0,"x_max":0,"o":"m 664 946 b 460 770 522 993 442 923 b 445 710 462 751 453 729 b 415 711 444 707 416 708 b 407 748 412 723 408 735 b 427 764 415 749 423 754 b 424 919 443 814 457 872 b 292 966 394 961 339 965 b 119 947 235 968 174 964 b 22 858 75 934 32 905 b 141 716 6 784 71 732 b 162 688 147 705 154 695 b 241 252 319 559 330 423 b 330 25 191 157 233 73 b 602 37 422 -21 516 -24 b 664 285 692 100 693 193 b 731 690 618 433 590 562 b 664 946 828 779 780 907 z "},"Z":{"ha":756,"x_min":0,"x_max":0,"o":"m 683 362 b 462 359 610 447 535 420 b 412 337 448 348 429 344 b 593 502 470 399 538 444 b 671 825 678 592 710 704 b 428 966 634 941 527 961 b 169 936 342 970 250 962 b 40 818 117 920 55 867 b 66 628 22 761 33 677 b 252 628 112 561 189 586 b 343 693 283 648 313 671 b 372 663 353 683 363 673 b 224 497 323 608 274 552 b 80 335 175 444 115 396 b 110 48 17 222 36 103 b 671 85 223 -35 573 -12 b 683 362 742 155 749 286 z "},"a":{"ha":764,"x_min":0,"x_max":0,"o":"m 720 208 b 692 303 711 240 701 272 b 686 329 690 312 688 321 b 537 806 643 490 590 648 b 533 819 536 811 534 815 b 546 832 538 823 542 827 b 540 928 570 861 565 901 b 460 962 519 949 488 956 b 363 972 428 968 395 972 b 265 965 330 973 297 970 b 190 935 238 960 210 954 b 178 846 165 912 162 875 b 187 833 181 841 184 837 b 174 801 183 823 178 812 b 12 307 127 668 13 313 b 0 265 9 293 5 279 b -23 165 -11 232 -21 200 b 81 14 -27 95 16 39 b 335 76 168 -20 271 11 b 437 21 363 49 399 30 b 561 14 478 11 519 11 b 658 28 593 16 627 17 b 730 102 693 41 721 66 b 720 208 740 137 731 174 z m 478 424 b 387 386 467 390 422 374 b 316 466 352 398 328 431 b 262 372 331 427 303 380 b 175 439 221 364 177 398 b 228 535 174 476 202 507 b 333 645 263 571 298 608 l 433 526 b 470 480 447 512 461 497 b 478 424 479 463 484 443 z "},"à":{"ha":764,"x_min":0,"x_max":0,"o":"m 720 208 b 692 303 711 240 701 272 b 686 329 690 312 688 321 b 537 806 643 490 590 648 b 533 819 536 811 534 815 b 546 832 538 823 542 827 b 540 928 570 861 565 901 b 460 962 519 949 488 956 b 363 972 428 968 395 972 b 265 965 330 973 297 970 b 190 935 238 960 210 954 b 178 846 165 912 162 875 b 187 833 181 841 184 837 b 174 801 183 823 178 812 b 12 307 127 668 13 313 b 0 265 9 293 5 279 b -23 165 -11 232 -21 200 b 81 14 -27 95 16 39 b 335 76 168 -20 271 11 b 437 21 363 49 399 30 b 561 14 478 11 519 11 b 658 28 593 16 627 17 b 730 102 693 41 721 66 b 720 208 740 137 731 174 z m 478 424 b 387 386 467 390 422 374 b 316 466 352 398 328 431 b 262 372 331 427 303 380 b 175 439 221 364 177 398 b 228 535 174 476 202 507 b 333 645 263 571 298 608 l 433 526 b 470 480 447 512 461 497 b 478 424 479 463 484 443 z "},"á":{"ha":764,"x_min":0,"x_max":0,"o":"m 720 208 b 692 303 711 240 701 272 b 686 329 690 312 688 321 b 537 806 643 490 590 648 b 533 819 536 811 534 815 b 546 832 538 823 542 827 b 540 928 570 861 565 901 b 460 962 519 949 488 956 b 363 972 428 968 395 972 b 265 965 330 973 297 970 b 190 935 238 960 210 954 b 178 846 165 912 162 875 b 187 833 181 841 184 837 b 174 801 183 823 178 812 b 12 307 127 668 13 313 b 0 265 9 293 5 279 b -23 165 -11 232 -21 200 b 81 14 -27 95 16 39 b 335 76 168 -20 271 11 b 437 21 363 49 399 30 b 561 14 478 11 519 11 b 658 28 593 16 627 17 b 730 102 693 41 721 66 b 720 208 740 137 731 174 z m 478 424 b 387 386 467 390 422 374 b 316 466 352 398 328 431 b 262 372 331 427 303 380 b 175 439 221 364 177 398 b 228 535 174 476 202 507 b 333 645 263 571 298 608 l 433 526 b 470 480 447 512 461 497 b 478 424 479 463 484 443 z "},"â":{"ha":764,"x_min":0,"x_max":0,"o":"m 720 208 b 692 303 711 240 701 272 b 686 329 690 312 688 321 b 537 806 643 490 590 648 b 533 819 536 811 534 815 b 546 832 538 823 542 827 b 540 928 570 861 565 901 b 460 962 519 949 488 956 b 363 972 428 968 395 972 b 265 965 330 973 297 970 b 190 935 238 960 210 954 b 178 846 165 912 162 875 b 187 833 181 841 184 837 b 174 801 183 823 178 812 b 12 307 127 668 13 313 b 0 265 9 293 5 279 b -23 165 -11 232 -21 200 b 81 14 -27 95 16 39 b 335 76 168 -20 271 11 b 437 21 363 49 399 30 b 561 14 478 11 519 11 b 658 28 593 16 627 17 b 730 102 693 41 721 66 b 720 208 740 137 731 174 z m 478 424 b 387 386 467 390 422 374 b 316 466 352 398 328 431 b 262 372 331 427 303 380 b 175 439 221 364 177 398 b 228 535 174 476 202 507 b 333 645 263 571 298 608 l 433 526 b 470 480 447 512 461 497 b 478 424 479 463 484 443 z "},"ã":{"ha":764,"x_min":0,"x_max":0,"o":"m 720 208 b 692 303 711 240 701 272 b 686 329 690 312 688 321 b 537 806 643 490 590 648 b 533 819 536 811 534 815 b 546 832 538 823 542 827 b 540 928 570 861 565 901 b 460 962 519 949 488 956 b 363 972 428 968 395 972 b 265 965 330 973 297 970 b 190 935 238 960 210 954 b 178 846 165 912 162 875 b 187 833 181 841 184 837 b 174 801 183 823 178 812 b 12 307 127 668 13 313 b 0 265 9 293 5 279 b -23 165 -11 232 -21 200 b 81 14 -27 95 16 39 b 335 76 168 -20 271 11 b 437 21 363 49 399 30 b 561 14 478 11 519 11 b 658 28 593 16 627 17 b 730 102 693 41 721 66 b 720 208 740 137 731 174 z m 478 424 b 387 386 467 390 422 374 b 316 466 352 398 328 431 b 262 372 331 427 303 380 b 175 439 221 364 177 398 b 228 535 174 476 202 507 b 333 645 263 571 298 608 l 433 526 b 470 480 447 512 461 497 b 478 424 479 463 484 443 z "},"ä":{"ha":764,"x_min":0,"x_max":0,"o":"m 720 208 b 692 303 711 240 701 272 b 686 329 690 312 688 321 b 537 806 643 490 590 648 b 533 819 536 811 534 815 b 546 832 538 823 542 827 b 540 928 570 861 565 901 b 460 962 519 949 488 956 b 363 972 428 968 395 972 b 265 965 330 973 297 970 b 190 935 238 960 210 954 b 178 846 165 912 162 875 b 187 833 181 841 184 837 b 174 801 183 823 178 812 b 12 307 127 668 13 313 b 0 265 9 293 5 279 b -23 165 -11 232 -21 200 b 81 14 -27 95 16 39 b 335 76 168 -20 271 11 b 437 21 363 49 399 30 b 561 14 478 11 519 11 b 658 28 593 16 627 17 b 730 102 693 41 721 66 b 720 208 740 137 731 174 z m 478 424 b 387 386 467 390 422 374 b 316 466 352 398 328 431 b 262 372 331 427 303 380 b 175 439 221 364 177 398 b 228 535 174 476 202 507 b 333 645 263 571 298 608 l 433 526 b 470 480 447 512 461 497 b 478 424 479 463 484 443 z "},"å":{"ha":764,"x_min":0,"x_max":0,"o":"m 720 208 b 692 303 711 240 701 272 b 686 329 690 312 688 321 b 537 806 643 490 590 648 b 533 819 536 811 534 815 b 546 832 538 823 542 827 b 540 928 570 861 565 901 b 460 962 519 949 488 956 b 363 972 428 968 395 972 b 265 965 330 973 297 970 b 190 935 238 960 210 954 b 178 846 165 912 162 875 b 187 833 181 841 184 837 b 174 801 183 823 178 812 b 12 307 127 668 13 313 b 0 265 9 293 5 279 b -23 165 -11 232 -21 200 b 81 14 -27 95 16 39 b 335 76 168 -20 271 11 b 437 21 363 49 399 30 b 561 14 478 11 519 11 b 658 28 593 16 627 17 b 730 102 693 41 721 66 b 720 208 740 137 731 174 z m 478 424 b 387 386 467 390 422 374 b 316 466 352 398 328 431 b 262 372 331 427 303 380 b 175 439 221 364 177 398 b 228 535 174 476 202 507 b 333 645 263 571 298 608 l 433 526 b 470 480 447 512 461 497 b 478 424 479 463 484 443 z "},"b":{"ha":792,"x_min":0,"x_max":0,"o":"m 767 291 b 653 523 753 376 630 440 b 667 803 683 637 684 717 b 303 967 642 927 470 988 b 72 911 220 978 131 978 b 40 791 43 877 33 835 b 89 689 47 753 67 720 b 67 373 92 583 86 476 b 72 146 50 278 50 203 b 64 134 69 142 67 138 b 106 27 42 90 60 44 b 176 14 128 19 153 17 b 259 6 204 11 231 8 b 433 6 317 2 375 2 b 445 9 438 6 442 7 b 511 15 466 10 488 12 b 767 291 664 39 790 153 z m 398 741 b 428 765 407 750 417 759 b 464 771 439 771 452 775 b 491 713 487 765 499 736 b 440 667 484 690 462 675 b 502 633 465 676 497 660 b 460 577 508 607 486 578 b 396 609 435 575 414 592 b 321 675 371 631 346 653 z m 481 214 b 417 247 456 213 435 230 b 342 313 392 269 367 291 l 419 379 b 449 403 428 388 438 397 b 485 409 460 409 473 413 b 512 351 508 403 519 374 b 461 305 505 328 483 312 b 523 271 486 314 518 297 b 481 214 529 245 507 216 z "},"c":{"ha":706,"x_min":0,"x_max":0,"o":"m 597 481 b 394 459 538 546 458 513 b 367 440 385 452 376 446 b 319 460 349 429 326 439 b 340 708 290 558 299 640 b 400 696 356 734 393 726 b 447 577 410 651 421 606 b 599 594 470 552 558 566 b 649 808 669 641 689 734 b 489 960 614 871 551 926 b 333 958 448 982 383 972 b 19 562 146 904 52 755 b 198 65 -14 362 41 184 b 673 272 389 -81 656 35 b 597 481 678 341 643 431 z "},"ç":{"ha":706,"x_min":0,"x_max":0,"o":"m 597 481 b 394 459 538 546 458 513 b 367 440 385 452 376 446 b 319 460 349 429 326 439 b 340 708 290 558 299 640 b 400 696 356 734 393 726 b 447 577 410 651 421 606 b 599 594 470 552 558 566 b 649 808 669 641 689 734 b 489 960 614 871 551 926 b 333 958 448 982 383 972 b 19 562 146 904 52 755 b 198 65 -14 362 41 184 b 673 272 389 -81 656 35 b 597 481 678 341 643 431 z "},"d":{"ha":815,"x_min":0,"x_max":0,"o":"m 738 704 b 296 963 654 882 504 972 b 95 892 197 958 125 934 b 74 881 88 889 81 885 b 27 789 43 860 26 824 b 114 676 28 734 66 695 b 92 248 131 533 105 392 b 94 212 91 237 91 224 b 68 60 52 175 36 113 b 180 -6 92 23 136 1 b 337 -1 230 -14 287 -11 b 408 31 363 4 388 15 b 693 160 521 45 638 93 b 738 704 833 330 825 519 z m 536 460 b 426 344 499 421 463 383 l 319 467 b 280 513 305 481 290 496 b 271 572 270 531 265 552 b 367 613 282 608 330 625 b 442 531 404 601 430 567 b 499 629 427 571 455 621 b 590 561 542 638 588 603 b 536 460 592 522 563 489 z "},"e":{"ha":700,"x_min":0,"x_max":0,"o":"m 496 398 b 494 424 495 407 494 415 b 523 435 505 426 515 431 b 538 533 559 456 569 503 b 483 556 522 550 503 556 b 477 630 481 580 479 604 b 633 744 554 622 621 647 b 508 949 646 845 606 929 b 202 954 409 968 302 969 b 44 737 65 935 35 876 b 50 362 52 612 64 485 b 357 2 20 99 90 9 b 438 4 384 1 411 1 b 670 216 574 17 660 96 b 496 398 678 318 628 367 z "},"è":{"ha":700,"x_min":0,"x_max":0,"o":"m 496 398 b 494 424 495 407 494 415 b 523 435 505 426 515 431 b 538 533 559 456 569 503 b 483 556 522 550 503 556 b 477 630 481 580 479 604 b 633 744 554 622 621 647 b 508 949 646 845 606 929 b 202 954 409 968 302 969 b 44 737 65 935 35 876 b 50 362 52 612 64 485 b 357 2 20 99 90 9 b 438 4 384 1 411 1 b 670 216 574 17 660 96 b 496 398 678 318 628 367 z "},"é":{"ha":700,"x_min":0,"x_max":0,"o":"m 496 398 b 494 424 495 407 494 415 b 523 435 505 426 515 431 b 538 533 559 456 569 503 b 483 556 522 550 503 556 b 477 630 481 580 479 604 b 633 744 554 622 621 647 b 508 949 646 845 606 929 b 202 954 409 968 302 969 b 44 737 65 935 35 876 b 50 362 52 612 64 485 b 357 2 20 99 90 9 b 438 4 384 1 411 1 b 670 216 574 17 660 96 b 496 398 678 318 628 367 z "},"ê":{"ha":700,"x_min":0,"x_max":0,"o":"m 496 398 b 494 424 495 407 494 415 b 523 435 505 426 515 431 b 538 533 559 456 569 503 b 483 556 522 550 503 556 b 477 630 481 580 479 604 b 633 744 554 622 621 647 b 508 949 646 845 606 929 b 202 954 409 968 302 969 b 44 737 65 935 35 876 b 50 362 52 612 64 485 b 357 2 20 99 90 9 b 438 4 384 1 411 1 b 670 216 574 17 660 96 b 496 398 678 318 628 367 z "},"ë":{"ha":700,"x_min":0,"x_max":0,"o":"m 496 398 b 494 424 495 407 494 415 b 523 435 505 426 515 431 b 538 533 559 456 569 503 b 483 556 522 550 503 556 b 477 630 481 580 479 604 b 633 744 554 622 621 647 b 508 949 646 845 606 929 b 202 954 409 968 302 969 b 44 737 65 935 35 876 b 50 362 52 612 64 485 b 357 2 20 99 90 9 b 438 4 384 1 411 1 b 670 216 574 17 660 96 b 496 398 678 318 628 367 z "},"f":{"ha":640,"x_min":0,"x_max":0,"o":"m 573 930 b 129 923 426 988 274 989 b 57 715 40 883 7 805 b 77 438 108 622 98 533 b 52 256 64 378 56 317 b 172 30 45 155 79 71 b 452 77 271 -14 370 1 b 494 329 527 146 538 235 b 481 363 489 341 484 353 b 494 390 485 373 489 381 b 571 520 517 435 558 470 b 523 631 581 564 567 612 b 369 632 471 654 421 623 b 368 632 369 632 368 632 b 394 718 375 667 380 696 b 470 705 400 728 448 718 b 648 743 543 660 610 661 b 573 930 687 826 654 898 z "},"g":{"ha":769,"x_min":0,"x_max":0,"o":"m 678 565 b 593 634 655 593 627 617 b 586 639 591 635 588 637 b 576 641 582 640 579 641 b 291 587 479 680 366 661 b 235 504 267 563 248 535 b 347 734 232 597 274 702 b 463 723 379 747 426 733 b 562 676 498 714 529 692 b 578 668 562 676 569 673 b 681 744 643 641 666 691 b 552 949 703 827 646 913 b 92 786 386 1011 180 941 b 76 210 -15 598 -9 403 b 426 9 143 57 262 -8 b 738 287 585 25 698 126 b 678 565 767 408 752 489 z m 493 312 b 422 243 469 289 445 266 l 361 324 b 339 355 353 334 345 344 b 350 411 330 373 330 397 b 386 418 361 418 374 420 b 438 360 413 412 431 387 b 476 420 430 386 449 417 b 529 374 503 424 530 401 b 493 312 529 349 510 329 z "},"h":{"ha":763,"x_min":0,"x_max":0,"o":"m 713 232 b 693 809 646 426 614 611 b 631 948 707 844 668 929 b 526 963 603 963 563 967 b 421 926 488 969 447 956 b 398 803 391 892 383 843 b 397 800 398 802 397 801 b 409 687 390 765 411 724 b 373 652 409 675 389 664 b 369 823 367 709 366 766 b 371 899 382 846 383 874 b 171 966 332 977 240 954 b 148 959 161 967 153 964 b 42 882 103 951 61 925 b 74 794 25 842 44 814 b 76 791 75 793 75 792 b 17 221 169 585 152 404 b 60 42 -8 188 23 84 b 283 22 116 -22 205 -24 b 347 202 353 63 365 128 b 313 334 335 246 313 290 b 369 408 313 359 349 383 b 408 329 383 382 407 356 b 381 230 409 296 391 263 b 545 13 343 98 409 10 b 713 232 682 15 759 96 z "},"i":{"ha":432,"x_min":0,"x_max":0,"o":"m 194 684 b 346 822 275 696 342 726 b 192 971 350 905 277 976 b 49 825 104 965 53 915 b 194 684 45 727 109 695 z m 348 522 b 352 544 350 529 352 537 b 374 589 362 558 370 572 b 333 664 381 622 364 652 b 226 668 300 676 260 671 b 143 671 220 668 155 669 b 103 673 129 673 116 675 b 52 632 80 670 59 655 b 54 600 48 621 49 610 b 104 63 -17 489 67 110 b 364 104 180 -36 322 -10 b 348 522 417 247 405 389 z "},"ì":{"ha":432,"x_min":0,"x_max":0,"o":"m 194 684 b 346 822 275 696 342 726 b 192 971 350 905 277 976 b 49 825 104 965 53 915 b 194 684 45 727 109 695 z m 348 522 b 352 544 350 529 352 537 b 374 589 362 558 370 572 b 333 664 381 622 364 652 b 226 668 300 676 260 671 b 143 671 220 668 155 669 b 103 673 129 673 116 675 b 52 632 80 670 59 655 b 54 600 48 621 49 610 b 104 63 -17 489 67 110 b 364 104 180 -36 322 -10 b 348 522 417 247 405 389 z "},"í":{"ha":432,"x_min":0,"x_max":0,"o":"m 194 684 b 346 822 275 696 342 726 b 192 971 350 905 277 976 b 49 825 104 965 53 915 b 194 684 45 727 109 695 z m 348 522 b 352 544 350 529 352 537 b 374 589 362 558 370 572 b 333 664 381 622 364 652 b 226 668 300 676 260 671 b 143 671 220 668 155 669 b 103 673 129 673 116 675 b 52 632 80 670 59 655 b 54 600 48 621 49 610 b 104 63 -17 489 67 110 b 364 104 180 -36 322 -10 b 348 522 417 247 405 389 z "},"î":{"ha":432,"x_min":0,"x_max":0,"o":"m 194 684 b 346 822 275 696 342 726 b 192 971 350 905 277 976 b 49 825 104 965 53 915 b 194 684 45 727 109 695 z m 348 522 b 352 544 350 529 352 537 b 374 589 362 558 370 572 b 333 664 381 622 364 652 b 226 668 300 676 260 671 b 143 671 220 668 155 669 b 103 673 129 673 116 675 b 52 632 80 670 59 655 b 54 600 48 621 49 610 b 104 63 -17 489 67 110 b 364 104 180 -36 322 -10 b 348 522 417 247 405 389 z "},"ï":{"ha":432,"x_min":0,"x_max":0,"o":"m 194 684 b 346 822 275 696 342 726 b 192 971 350 905 277 976 b 49 825 104 965 53 915 b 194 684 45 727 109 695 z m 348 522 b 352 544 350 529 352 537 b 374 589 362 558 370 572 b 333 664 381 622 364 652 b 226 668 300 676 260 671 b 143 671 220 668 155 669 b 103 673 129 673 116 675 b 52 632 80 670 59 655 b 54 600 48 621 49 610 b 104 63 -17 489 67 110 b 364 104 180 -36 322 -10 b 348 522 417 247 405 389 z "},"j":{"ha":685,"x_min":0,"x_max":0,"o":"m 691 861 b 688 878 689 866 688 872 b 665 937 688 899 680 920 b 586 972 643 960 615 970 b 579 972 584 972 582 972 b 295 955 555 977 325 964 b 174 821 234 936 172 892 b 225 740 174 786 195 757 b 260 736 226 740 245 738 b 294 717 273 734 286 727 b 332 673 306 703 316 690 b 334 465 373 627 332 536 b 255 441 334 459 295 447 b 210 456 238 439 221 444 b 210 456 210 456 210 456 b 151 501 193 474 175 493 b -11 405 118 512 -5 436 b 20 205 -16 378 7 232 b 23 196 21 202 22 199 b 349 6 64 64 191 -13 b 638 455 568 33 682 215 b 617 708 623 538 616 623 b 641 752 617 726 626 742 b 685 798 659 763 674 778 b 691 861 695 819 697 841 z "},"k":{"ha":750,"x_min":0,"x_max":0,"o":"m 697 323 b 544 576 662 412 597 491 b 669 885 639 652 721 748 b 544 981 652 928 589 978 b 333 721 387 995 384 851 b 331 809 332 772 331 790 b 203 954 329 893 295 954 b 52 814 114 955 43 897 b 6 181 74 599 72 389 b 17 125 1 165 11 143 b 208 4 48 34 106 -22 b 320 191 302 27 329 101 b 305 269 317 217 305 243 b 321 353 305 297 312 326 b 360 357 322 358 359 360 b 383 263 371 326 380 295 b 366 209 385 246 371 228 b 505 19 340 103 395 27 b 697 323 664 7 764 155 z "},"l":{"ha":747,"x_min":0,"x_max":0,"o":"m 644 505 b 502 510 603 538 542 551 b 475 460 488 496 479 478 b 395 452 450 459 424 457 b 447 776 415 565 446 670 b 445 810 447 786 446 798 b 490 830 461 813 476 819 b 522 908 513 848 528 877 b 304 981 505 994 316 981 b 257 981 289 983 273 983 b 55 952 197 981 53 966 b 33 884 37 934 29 910 b 108 804 40 839 71 815 b 79 270 160 619 122 447 b 217 6 47 141 98 25 b 596 32 340 -13 474 1 b 621 44 604 34 613 38 b 647 49 629 40 639 41 b 720 248 698 104 723 176 b 644 505 728 343 720 443 z m 423 891 b 422 891 423 891 422 891 b 421 892 422 891 422 892 b 423 891 422 892 423 892 z m 651 417 b 648 422 650 419 649 421 b 651 417 649 420 650 419 b 651 417 651 417 651 417 z "},"m":{"ha":974,"x_min":0,"x_max":0,"o":"m 922 287 b 838 616 884 396 849 504 b 905 869 895 689 942 775 b 796 961 887 917 848 953 b 755 961 783 963 769 963 b 639 910 715 962 658 939 b 570 708 600 853 589 777 b 565 687 568 701 566 694 b 502 685 530 686 537 686 b 468 812 492 728 482 770 b 277 968 439 904 374 971 b 71 902 207 967 126 944 b 96 694 3 849 23 741 b 161 666 119 679 141 669 b 146 374 149 569 144 471 b 52 214 115 320 74 271 b 138 26 21 131 55 59 b 320 100 216 -5 292 23 b 371 367 351 184 359 277 b 374 423 373 385 374 404 b 397 387 389 421 397 406 b 398 310 398 363 395 335 b 410 275 399 289 401 279 b 443 249 417 264 427 255 b 568 327 502 226 549 277 b 598 407 578 353 580 385 b 636 416 608 419 625 423 l 628 320 b 612 260 626 299 621 279 l 597 225 b 588 151 586 202 583 176 b 802 20 612 34 682 -8 b 922 287 911 45 969 153 z "},"n":{"ha":786,"x_min":0,"x_max":0,"o":"m 726 284 b 695 776 661 447 644 605 b 617 966 718 854 712 937 b 426 830 541 989 447 922 b 413 689 417 789 418 746 b 312 893 377 766 357 842 b 163 955 278 932 210 964 b 69 835 126 948 76 881 b 11 253 42 642 28 447 b 151 -13 1 130 66 8 b 365 174 249 -37 321 24 b 384 129 372 157 377 142 b 652 -2 445 1 553 -52 b 726 284 742 42 778 151 z "},"ñ":{"ha":786,"x_min":0,"x_max":0,"o":"m 726 284 b 695 776 661 447 644 605 b 617 966 718 854 712 937 b 426 830 541 989 447 922 b 413 689 417 789 418 746 b 312 893 377 766 357 842 b 163 955 278 932 210 964 b 69 835 126 948 76 881 b 11 253 42 642 28 447 b 151 -13 1 130 66 8 b 365 174 249 -37 321 24 b 384 129 372 157 377 142 b 652 -2 445 1 553 -52 b 726 284 742 42 778 151 z "},"o":{"ha":761,"x_min":0,"x_max":0,"o":"m 624 841 b 385 968 558 923 471 965 l 385 969 b 378 969 383 969 380 969 b 371 969 376 969 374 969 l 371 968 b 132 841 285 965 198 923 b 123 131 -24 650 -28 328 b 378 1 192 41 285 -3 b 634 131 471 -3 565 41 b 624 841 784 328 780 650 z m 467 457 b 364 357 433 423 398 390 l 277 474 b 246 518 266 488 253 502 b 240 572 238 535 234 554 b 327 604 252 604 295 617 b 388 526 358 591 379 559 b 442 612 377 563 404 606 b 519 545 481 618 520 584 b 467 457 519 510 492 481 z "},"ò":{"ha":761,"x_min":0,"x_max":0,"o":"m 624 841 b 385 968 558 923 471 965 l 385 969 b 378 969 383 969 380 969 b 371 969 376 969 374 969 l 371 968 b 132 841 285 965 198 923 b 123 131 -24 650 -28 328 b 378 1 192 41 285 -3 b 634 131 471 -3 565 41 b 624 841 784 328 780 650 z m 467 457 b 364 357 433 423 398 390 l 277 474 b 246 518 266 488 253 502 b 240 572 238 535 234 554 b 327 604 252 604 295 617 b 388 526 358 591 379 559 b 442 612 377 563 404 606 b 519 545 481 618 520 584 b 467 457 519 510 492 481 z "},"ó":{"ha":761,"x_min":0,"x_max":0,"o":"m 624 841 b 385 968 558 923 471 965 l 385 969 b 378 969 383 969 380 969 b 371 969 376 969 374 969 l 371 968 b 132 841 285 965 198 923 b 123 131 -24 650 -28 328 b 378 1 192 41 285 -3 b 634 131 471 -3 565 41 b 624 841 784 328 780 650 z m 467 457 b 364 357 433 423 398 390 l 277 474 b 246 518 266 488 253 502 b 240 572 238 535 234 554 b 327 604 252 604 295 617 b 388 526 358 591 379 559 b 442 612 377 563 404 606 b 519 545 481 618 520 584 b 467 457 519 510 492 481 z "},"ô":{"ha":761,"x_min":0,"x_max":0,"o":"m 624 841 b 385 968 558 923 471 965 l 385 969 b 378 969 383 969 380 969 b 371 969 376 969 374 969 l 371 968 b 132 841 285 965 198 923 b 123 131 -24 650 -28 328 b 378 1 192 41 285 -3 b 634 131 471 -3 565 41 b 624 841 784 328 780 650 z m 467 457 b 364 357 433 423 398 390 l 277 474 b 246 518 266 488 253 502 b 240 572 238 535 234 554 b 327 604 252 604 295 617 b 388 526 358 591 379 559 b 442 612 377 563 404 606 b 519 545 481 618 520 584 b 467 457 519 510 492 481 z "},"õ":{"ha":761,"x_min":0,"x_max":0,"o":"m 624 841 b 385 968 558 923 471 965 l 385 969 b 378 969 383 969 380 969 b 371 969 376 969 374 969 l 371 968 b 132 841 285 965 198 923 b 123 131 -24 650 -28 328 b 378 1 192 41 285 -3 b 634 131 471 -3 565 41 b 624 841 784 328 780 650 z m 467 457 b 364 357 433 423 398 390 l 277 474 b 246 518 266 488 253 502 b 240 572 238 535 234 554 b 327 604 252 604 295 617 b 388 526 358 591 379 559 b 442 612 377 563 404 606 b 519 545 481 618 520 584 b 467 457 519 510 492 481 z "},"ö":{"ha":761,"x_min":0,"x_max":0,"o":"m 624 841 b 385 968 558 923 471 965 l 385 969 b 378 969 383 969 380 969 b 371 969 376 969 374 969 l 371 968 b 132 841 285 965 198 923 b 123 131 -24 650 -28 328 b 378 1 192 41 285 -3 b 634 131 471 -3 565 41 b 624 841 784 328 780 650 z m 467 457 b 364 357 433 423 398 390 l 277 474 b 246 518 266 488 253 502 b 240 572 238 535 234 554 b 327 604 252 604 295 617 b 388 526 358 591 379 559 b 442 612 377 563 404 606 b 519 545 481 618 520 584 b 467 457 519 510 492 481 z "},"ø":{"ha":761,"x_min":0,"x_max":0,"o":"m 624 841 b 385 968 558 923 471 965 l 385 969 b 378 969 383 969 380 969 b 371 969 376 969 374 969 l 371 968 b 132 841 285 965 198 923 b 123 131 -24 650 -28 328 b 378 1 192 41 285 -3 b 634 131 471 -3 565 41 b 624 841 784 328 780 650 z m 467 457 b 364 357 433 423 398 390 l 277 474 b 246 518 266 488 253 502 b 240 572 238 535 234 554 b 327 604 252 604 295 617 b 388 526 358 591 379 559 b 442 612 377 563 404 606 b 519 545 481 618 520 584 b 467 457 519 510 492 481 z "},"p":{"ha":649,"x_min":0,"x_max":0,"o":"m 626 780 b 215 964 556 920 393 993 b 62 738 60 940 19 887 b 39 350 102 603 101 479 b 22 172 15 299 11 229 b 281 4 43 49 162 -22 b 420 262 398 30 452 130 b 395 355 412 292 404 321 b 626 780 639 457 715 602 z m 516 744 b 463 672 513 714 487 691 b 366 595 431 646 399 621 l 301 703 b 278 744 292 716 283 730 b 278 791 272 759 271 777 b 355 812 290 818 329 826 b 401 739 381 798 396 768 b 456 809 394 771 422 807 b 516 744 489 810 520 777 z "},"q":{"ha":799,"x_min":0,"x_max":0,"o":"m 720 150 b 703 322 673 211 671 252 b 625 830 785 504 738 676 b 182 851 505 993 319 1001 b 7 423 72 731 15 587 b 462 9 -8 96 172 -57 b 638 -89 532 -33 582 -80 b 749 -15 672 -95 741 -49 b 720 150 761 36 751 110 z m 526 550 b 473 478 523 520 497 497 b 376 401 441 452 408 427 l 311 509 b 287 551 302 522 293 536 b 287 597 282 565 280 583 b 365 618 300 624 338 632 b 411 545 391 604 406 574 b 465 615 404 578 432 613 b 526 550 499 616 529 583 z "},"r":{"ha":729,"x_min":0,"x_max":0,"o":"m 683 238 b 544 469 657 321 592 393 b 437 935 734 703 605 899 b 197 949 359 952 276 955 b 64 725 53 937 24 866 b 76 459 88 642 80 548 b 72 429 76 449 74 439 b 68 413 71 423 69 418 b 42 304 58 376 43 339 b 19 197 33 269 26 233 b 47 -22 5 124 2 42 b 222 -77 86 -77 158 -106 b 259 -50 237 -71 249 -61 b 283 -33 268 -46 276 -40 b 329 93 316 -1 323 49 b 351 344 339 176 346 260 b 355 142 353 277 355 210 b 452 -5 355 70 376 2 b 661 31 523 -11 621 -11 b 683 238 700 71 703 174 z m 151 -12 b 162 -10 155 -11 158 -11 b 151 -12 158 -11 155 -12 z m 495 727 b 443 654 492 696 467 674 b 348 574 411 627 380 601 l 281 682 b 256 722 271 695 262 708 b 255 769 250 737 249 754 b 332 791 267 796 305 805 b 380 719 359 778 374 748 b 433 790 372 752 399 788 b 495 727 466 792 498 760 z "},"s":{"ha":711,"x_min":0,"x_max":0,"o":"m 657 394 b 449 637 606 492 511 567 b 577 764 499 637 568 672 b 439 954 585 861 527 930 b 225 963 371 972 294 975 b 39 783 130 947 51 888 b 166 554 26 681 83 606 b 326 462 218 521 276 498 b 364 276 401 409 409 341 b 314 437 348 332 346 424 b 103 434 252 461 162 463 b 32 191 9 387 -3 290 b 480 9 88 37 300 -49 b 657 394 653 64 741 232 z "},"t":{"ha":704,"x_min":0,"x_max":0,"o":"m 714 829 b 546 951 682 885 608 942 b 183 943 427 968 300 969 b 19 791 119 928 54 855 b 72 648 2 760 37 664 b 292 629 131 620 209 633 b 291 582 292 628 296 604 b 208 249 264 471 231 361 b 378 7 182 128 262 19 b 585 202 490 -4 586 79 b 545 415 585 273 563 345 b 463 684 524 498 496 578 b 689 656 552 614 631 582 b 714 829 722 698 738 788 z "},"u":{"ha":731,"x_min":0,"x_max":0,"o":"m 696 402 b 694 780 691 528 689 654 b 539 967 697 892 640 966 b 389 789 443 968 381 898 b 421 633 393 736 416 685 b 423 416 427 561 429 488 b 369 359 422 394 389 360 b 315 414 351 358 317 392 b 316 617 308 481 310 550 b 345 809 322 682 344 745 b 203 967 347 915 294 968 b 43 797 102 967 43 903 b 43 378 43 663 43 529 b 338 2 39 147 141 12 b 696 402 575 -9 707 140 z "},"ù":{"ha":731,"x_min":0,"x_max":0,"o":"m 696 402 b 694 780 691 528 689 654 b 539 967 697 892 640 966 b 389 789 443 968 381 898 b 421 633 393 736 416 685 b 423 416 427 561 429 488 b 369 359 422 394 389 360 b 315 414 351 358 317 392 b 316 617 308 481 310 550 b 345 809 322 682 344 745 b 203 967 347 915 294 968 b 43 797 102 967 43 903 b 43 378 43 663 43 529 b 338 2 39 147 141 12 b 696 402 575 -9 707 140 z "},"ú":{"ha":731,"x_min":0,"x_max":0,"o":"m 696 402 b 694 780 691 528 689 654 b 539 967 697 892 640 966 b 389 789 443 968 381 898 b 421 633 393 736 416 685 b 423 416 427 561 429 488 b 369 359 422 394 389 360 b 315 414 351 358 317 392 b 316 617 308 481 310 550 b 345 809 322 682 344 745 b 203 967 347 915 294 968 b 43 797 102 967 43 903 b 43 378 43 663 43 529 b 338 2 39 147 141 12 b 696 402 575 -9 707 140 z "},"û":{"ha":731,"x_min":0,"x_max":0,"o":"m 696 402 b 694 780 691 528 689 654 b 539 967 697 892 640 966 b 389 789 443 968 381 898 b 421 633 393 736 416 685 b 423 416 427 561 429 488 b 369 359 422 394 389 360 b 315 414 351 358 317 392 b 316 617 308 481 310 550 b 345 809 322 682 344 745 b 203 967 347 915 294 968 b 43 797 102 967 43 903 b 43 378 43 663 43 529 b 338 2 39 147 141 12 b 696 402 575 -9 707 140 z "},"ü":{"ha":731,"x_min":0,"x_max":0,"o":"m 696 402 b 694 780 691 528 689 654 b 539 967 697 892 640 966 b 389 789 443 968 381 898 b 421 633 393 736 416 685 b 423 416 427 561 429 488 b 369 359 422 394 389 360 b 315 414 351 358 317 392 b 316 617 308 481 310 550 b 345 809 322 682 344 745 b 203 967 347 915 294 968 b 43 797 102 967 43 903 b 43 378 43 663 43 529 b 338 2 39 147 141 12 b 696 402 575 -9 707 140 z "},"v":{"ha":735,"x_min":0,"x_max":0,"o":"m 693 911 b 505 938 647 946 557 960 b 419 785 461 921 428 841 b 433 579 408 719 432 648 b 420 391 434 517 425 454 b 366 387 402 390 384 389 b 346 557 359 444 345 500 b 365 808 347 641 369 725 b 173 957 360 914 276 972 b 31 748 66 940 4 852 b 187 163 81 553 135 358 b 399 -8 216 55 277 -10 b 596 165 517 -6 570 63 b 743 741 646 357 703 547 b 693 911 754 794 732 881 z "},"w":{"ha":979,"x_min":0,"x_max":0,"o":"m 879 275 b 856 288 871 280 864 284 b 854 520 855 365 855 443 b 853 630 853 557 852 594 b 853 639 853 633 853 636 b 918 755 877 677 902 714 b 830 943 948 838 913 910 b 649 867 752 973 676 944 b 601 600 619 783 612 690 b 598 543 599 581 598 562 b 574 579 583 545 575 561 b 573 656 573 603 576 631 b 561 691 572 677 569 687 b 528 717 554 702 544 711 b 403 637 468 739 421 688 b 374 557 394 611 392 579 b 336 548 364 546 347 542 l 343 644 b 358 704 345 665 350 685 l 374 739 b 381 814 384 763 387 789 b 166 943 356 930 286 972 b 48 674 57 917 0 808 b 103 508 68 619 87 563 b 111 312 106 442 108 377 b 71 93 67 246 39 172 b 181 2 90 45 129 9 b 221 2 194 0 208 0 b 338 54 261 1 319 25 b 405 257 376 112 386 188 b 410 277 407 264 408 270 b 472 280 444 279 438 278 b 507 154 483 237 494 195 b 700 -1 538 62 603 -4 b 905 68 770 1 851 25 b 879 275 973 121 952 228 z "},"x":{"ha":835,"x_min":0,"x_max":0,"o":"m 772 955 b 601 1003 725 985 658 1014 b 530 907 555 994 521 951 b 487 827 512 885 497 858 b 461 669 472 776 469 721 b 418 801 434 712 428 757 b 370 892 409 838 392 869 b 339 969 377 921 369 952 b 206 935 291 996 244 962 b 202 932 205 934 204 933 b 184 921 196 928 190 925 b 162 909 176 918 169 913 b 90 867 138 895 114 881 b 15 771 53 845 17 817 b 98 699 13 723 52 693 b 116 702 104 699 110 700 b 113 171 230 520 231 356 b 203 -49 52 75 108 -25 b 417 106 302 -75 402 -3 b 420 198 422 137 419 167 b 605 -1 458 39 501 -11 b 746 290 762 13 848 166 b 756 669 627 433 640 545 b 780 708 766 680 773 694 b 792 733 785 716 788 725 b 851 809 822 746 845 774 b 772 955 861 870 821 924 z m 82 770 b 83 775 82 772 82 773 b 82 770 88 769 82 769 z "},"y":{"ha":761,"x_min":0,"x_max":0,"o":"m 662 946 b 458 770 520 993 440 923 b 443 710 460 751 451 729 b 413 711 442 707 414 708 b 405 748 410 723 407 735 b 425 764 414 749 422 754 b 422 919 441 814 455 872 b 290 966 392 961 337 965 b 117 947 233 968 172 964 b 20 858 74 934 30 905 b 139 716 4 784 69 732 b 161 688 145 705 152 695 b 239 252 317 559 328 423 b 328 25 189 157 231 73 b 601 37 421 -21 514 -24 b 662 285 690 100 691 193 b 729 690 616 433 589 562 b 662 946 826 779 778 907 z "},"ý":{"ha":761,"x_min":0,"x_max":0,"o":"m 662 946 b 458 770 520 993 440 923 b 443 710 460 751 451 729 b 413 711 442 707 414 708 b 405 748 410 723 407 735 b 425 764 414 749 422 754 b 422 919 441 814 455 872 b 290 966 392 961 337 965 b 117 947 233 968 172 964 b 20 858 74 934 30 905 b 139 716 4 784 69 732 b 161 688 145 705 152 695 b 239 252 317 559 328 423 b 328 25 189 157 231 73 b 601 37 421 -21 514 -24 b 662 285 690 100 691 193 b 729 690 616 433 589 562 b 662 946 826 779 778 907 z "},"ÿ":{"ha":761,"x_min":0,"x_max":0,"o":"m 662 946 b 458 770 520 993 440 923 b 443 710 460 751 451 729 b 413 711 442 707 414 708 b 405 748 410 723 407 735 b 425 764 414 749 422 754 b 422 919 441 814 455 872 b 290 966 392 961 337 965 b 117 947 233 968 172 964 b 20 858 74 934 30 905 b 139 716 4 784 69 732 b 161 688 145 705 152 695 b 239 252 317 559 328 423 b 328 25 189 157 231 73 b 601 37 421 -21 514 -24 b 662 285 690 100 691 193 b 729 690 616 433 589 562 b 662 946 826 779 778 907 z "},"z":{"ha":758,"x_min":0,"x_max":0,"o":"m 683 362 b 461 359 609 447 535 420 b 412 337 448 348 428 344 b 593 502 470 399 538 444 b 671 825 678 592 710 704 b 428 966 633 941 527 961 b 168 936 341 970 250 962 b 39 818 116 920 54 867 b 66 628 22 761 33 677 b 251 628 111 561 189 586 b 343 693 282 648 312 671 b 372 663 352 683 362 673 b 224 497 322 608 273 552 b 80 335 175 444 115 396 b 110 48 16 222 35 103 b 670 85 222 -35 572 -12 b 683 362 741 155 749 286 z "}," ":{"ha":429,"x_min":0,"x_max":0,"o":""},"­":{"ha":0,"x_min":0,"x_max":0,"o":""}}}
